<svg width="1528" height="1000" viewBox="0 0 1528 1000" fill="none" xmlns="http://www.w3.org/2000/svg">
<rect width="1528" height="1000" fill="#1E1E1E"/>
<rect width="1000" height="1000" transform="translate(392)" fill="white"/>
<path d="M4.5 175C8.33333 169.333 182.763 140.87 198 116C288.391 -31.5318 403.5 176.5 511.5 77.5C619.5 -21.5 779.145 81.7475 926 156.5C1010.06 199.286 1100.04 136.075 1113 229.5C1122.5 298 1171 314 1135.5 370.5C1100 427 1076.5 385 968 373C859.5 361 711.072 218.38 511.5 200C444.807 193.858 390.549 232.979 332 265.5C258.527 306.31 246.5 463 246.5 463C246.5 463 245.394 571.818 280 627.5C345.602 733.055 491.5 743.5 584.5 720C658.9 701.2 762 655.5 775 563C790.028 456.071 1021.15 401.413 1048 506C1076.5 617 1043 855.5 1145 814.5C1247 773.5 1432.17 649.167 1527.5 655.5" stroke="black" stroke-width="10"/>
</svg>
