<svg width="972" height="1721" viewBox="0 0 972 1721" fill="none" xmlns="http://www.w3.org/2000/svg">
<path d="M987.5 73C801.1 -40.2 537.503 44.4067 436 73C334.497 101.593 302.427 132.694 287.5 217C272.573 301.306 308.528 388.882 391.5 410C486.041 434.063 564.321 337.469 575 240.5C589.591 108 419.398 37.2102 287.5 56.5C103.286 83.4409 -49.5003 575 162.5 598.5C374.5 622 217 420 481 563.5C745 707 118.067 853.5 44.9999 1077C-28.0673 1300.5 44.9999 1508.5 162.5 1508.5C392.924 1508.5 551.215 1304.28 589.5 1235C645.316 1134 553.5 1076.33 499.5 1035C410 966.5 271 1077 271 1173.5C271 1298.21 491.954 1415.46 575 1508.5C672.236 1617.43 569.641 1662.51 712 1695C933.488 1745.55 1004.46 1610.02 1178.5 1464" stroke="#8324CC" stroke-width="30" style="mix-blend-mode:darken"/>
</svg>
